<svg width="26" height="26" viewBox="0 0 26 26" fill="none" xmlns="http://www.w3.org/2000/svg">
<path d="M22.1407 12.2383V13.7617C22.1407 13.8971 22.073 13.9648 21.9376 13.9648H4.06262C3.92721 13.9648 3.8595 13.8971 3.8595 13.7617V12.2383C3.8595 12.1029 3.92721 12.0352 4.06262 12.0352H21.9376C22.073 12.0352 22.1407 12.1029 22.1407 12.2383Z" fill="#3D3D3D"/>
<path d="M4.46875 12.0352H21.5312C21.6667 12.0352 21.7344 12.1029 21.7344 12.2383V13.7617C21.7344 13.8971 21.6667 13.9648 21.5312 13.9648H4.46875C4.33333 13.9648 4.26562 13.8971 4.26562 13.7617V12.2383C4.26562 12.1029 4.33333 12.0352 4.46875 12.0352Z" fill="#3D3D3D"/>
</svg>
